HIERARCHY
ROOT RootJoint
{
    OFFSET   0.000000   0.000000   0.000000
    CHANNELS 6 Xposition Yposition Zposition Xrotation Yrotation Zrotation
    JOINT pelvis_lowerback
    {
        OFFSET   0.000000   0.093605   0.000000
        CHANNELS 3 Xrotation Yrotation Zrotation
        JOINT lowerback_torso
        {
            OFFSET   0.000000   0.100000   0.000000
            CHANNELS 3 Xrotation Yrotation Zrotation
            JOINT torso_head
            {
                OFFSET   0.000000   0.282350   0.000000
                CHANNELS 3 Xrotation Yrotation Zrotation
                End Site
                {
                    OFFSET   0.000000   0.192650   0.000000
                }
            }
            JOINT rTorso_Clavicle
            {
                OFFSET  -0.001000   0.157500   0.000000
                CHANNELS 3 Xrotation Yrotation Zrotation
                JOINT rShoulder
                {
                    OFFSET  -0.117647   0.000000   0.000000
                    CHANNELS 3 Xrotation Yrotation Zrotation
                    JOINT rElbow
                    {
                        OFFSET  -0.245000   0.000000   0.000000
                        CHANNELS 3 Xrotation Yrotation Zrotation
                        JOINT rWrist
                        {
                            OFFSET  -0.240000   0.000000   0.000000
                            CHANNELS 3 Xrotation Yrotation Zrotation
                            End Site
                            {
                                OFFSET  -0.116353  -0.002500   0.000000
                            }
                        }
                    }
                }
            }
            JOINT lTorso_Clavicle
            {
                OFFSET   0.001000   0.157500   0.000000
                CHANNELS 3 Xrotation Yrotation Zrotation
                JOINT lShoulder
                {
                    OFFSET   0.117647   0.000000   0.000000
                    CHANNELS 3 Xrotation Yrotation Zrotation
                    JOINT lElbow
                    {
                        OFFSET   0.245000   0.000000   0.000000
                        CHANNELS 3 Xrotation Yrotation Zrotation
                        JOINT lWrist
                        {
                            OFFSET   0.240000   0.000000   0.000000
                            CHANNELS 3 Xrotation Yrotation Zrotation
                            End Site
                            {
                                OFFSET   0.116353  -0.002500   0.000000
                            }
                        }
                    }
                }
            }
        }
    }
    JOINT rHip
    {
        OFFSET  -0.100000  -0.051395   0.000000
        CHANNELS 3 Xrotation Yrotation Zrotation
        JOINT rKnee
        {
            OFFSET   0.000000  -0.410000   0.000000
            CHANNELS 3 Xrotation Yrotation Zrotation
            JOINT rAnkle
            {
                OFFSET   0.000000  -0.390000   0.000000
                CHANNELS 3 Xrotation Yrotation Zrotation
                JOINT rToeJoint
                {
                    OFFSET   0.000000  -0.050000   0.130000
                    CHANNELS 3 Xrotation Yrotation Zrotation
                    End Site
                    {
                        OFFSET  -0.010000   0.002000   0.060000
                    }
                }
            }
        }
    }
    JOINT lHip
    {
        OFFSET   0.100000  -0.051395   0.000000
        CHANNELS 3 Xrotation Yrotation Zrotation
        JOINT lKnee
        {
            OFFSET   0.000000  -0.410000   0.000000
            CHANNELS 3 Xrotation Yrotation Zrotation
            JOINT lAnkle
            {
                OFFSET   0.000000  -0.390000   0.000000
                CHANNELS 3 Xrotation Yrotation Zrotation
                JOINT lToeJoint
                {
                    OFFSET   0.000000  -0.050000   0.130000
                    CHANNELS 3 Xrotation Yrotation Zrotation
                    End Site
                    {
                        OFFSET   0.010000   0.002000   0.060000
                    }
                }
            }
        }
    }
}
MOTION
Frames: 10
Frame Time:   0.008333
 -2.376719   0.925631   3.975860   0.000000   0.000000   0.000000   0.000000   0.000000   0.000000   0.000000   0.000000   0.000000   0.000000   0.000000   0.000000   0.000000   0.000000   0.000000   0.000000   0.000000   0.000000   0.000000   0.000000   0.000000   0.000000   0.000000   0.000000   0.000000   0.000000   0.000000   0.000000   0.000000   0.000000   0.000000   0.000000   0.000000   0.000000   0.000000   0.000000   0.000000   0.000000   0.000000   0.000000   0.000000   0.000000   0.000000   0.000000   0.000000   0.000000   0.000000   0.000000   0.000000   0.000000   0.000000   0.000000   0.000000   0.000000   0.000000   0.000000   0.000000   0.000000   0.000000   0.000000
 -2.376376   0.926080   3.975259  -0.109662   0.101918   0.249668   0.256749   0.020186  -0.205075   0.111674  -0.192286  -0.112700  -0.311659   0.002125   0.057387   0.175177  -0.432641   0.236748   0.598152   0.164881   2.192448   0.039692   1.910204  -0.017737   0.164959  -0.733809  -2.806533   0.203546   0.379541  -0.088104   1.009813   0.124669  -2.156615   0.030948  -1.519782   0.019832   0.227950   0.350032   2.687700  -0.356923  -0.234296  -0.515752   1.718866   0.003943  -0.002084  -1.435615  -0.700687   0.194712  -0.206905  -0.000130   0.001502  -0.480188   0.053066  -0.137978   1.299992  -0.001248   0.001755  -1.214045   0.518871   0.237633   0.279349  -0.000846   0.001641
 -2.375950   0.926850   3.974696  -0.297898   0.225418   0.522905   0.540982   0.040463  -0.408865   0.297521  -0.380460  -0.239662  -0.583185   0.000101   0.102762   0.349706  -0.796198   1.151586   1.170976   0.422259   4.929182   0.091351   3.763955  -0.031383   0.366395  -0.908707  -4.937339   0.409122   0.706614  -0.849178   2.004843   0.165912  -4.852966   0.070995  -2.985683   0.035090   0.510530   0.296144   4.707309  -0.567323  -0.471609  -1.238538   3.557006   0.010159  -0.004049  -2.767644  -1.372437   0.356474  -0.431372  -0.000681   0.002747  -0.976477   0.117719  -0.153193   2.631914  -0.003883   0.003674  -2.350613   1.007856   0.472422   0.481779  -0.001524   0.002513
 -2.375504   0.927554   3.974211  -0.489456   0.337234   0.782791   0.809818   0.074638  -0.592570   0.485862  -0.543137  -0.355895  -0.831002  -0.002147   0.143004   0.519088  -1.081842   2.479359   1.714518   0.747963   8.016223   0.141990   5.510742  -0.040546   0.569201  -0.895194  -6.282110   0.604475   0.971458  -2.029865   2.981399   0.127475  -7.901112   0.110187  -4.365327   0.045534   0.795272   0.112547   5.957312  -0.675281  -0.694813  -2.085980   5.332333   0.016887  -0.006089  -4.005688  -2.005650   0.491461  -0.631424  -0.001362   0.003513  -1.507878   0.181556  -0.026233   3.869821  -0.007093   0.005101  -3.413311   1.462343   0.702463   0.660557  -0.002143   0.003009
 -2.375067   0.927910   3.973818  -0.666859   0.423631   1.024284   1.059096   0.126017  -0.757774   0.659024  -0.676678  -0.460175  -1.062732  -0.004116   0.181251   0.683844  -1.304682   4.043674   2.229140   1.133283  11.339311   0.185807   7.150013  -0.046266   0.766552  -0.803895  -7.034044   0.788907   1.191176  -3.460091   3.933853   0.016233 -11.160363   0.143868  -5.659015   0.052088   1.073690  -0.122381   6.619058  -0.707258  -0.904538  -3.020765   7.017957   0.023230  -0.008352  -5.159370  -2.601251   0.603516  -0.817140  -0.002070   0.003999  -2.073135   0.240403   0.225076   5.003547  -0.010317   0.005991  -4.408182   1.884329   0.926849   0.816934  -0.002645   0.003210
 -2.374694   0.927697   3.973527  -0.827640   0.483761   1.250375   1.289236   0.194453  -0.914343   0.815013  -0.780986  -0.568028  -1.279776  -0.006072   0.221695   0.843765  -1.481581   5.733828   2.713937   1.568533  14.825667   0.220428   8.684652  -0.049444   0.955185  -0.679405  -7.368934   0.964497   1.383810  -5.067094   4.815841  -0.152038 -14.401363   0.169378  -6.869273   0.055177   1.341566  -0.377374   6.800948  -0.677967  -1.102334  -4.016621   8.612579   0.028680  -0.010713  -6.235413  -3.160761   0.695758  -0.991094  -0.002735   0.004285  -2.664196   0.291426   0.579601   6.040573  -0.013261   0.006471  -5.339645   2.275821   1.144632   0.954018  -0.003019   0.003210
 -2.374411   0.926751   3.973338  -0.972784   0.522028   1.461689   1.501134   0.277822  -1.067506   0.954978  -0.858692  -0.680659  -1.482517  -0.008039   0.260762   0.998386  -1.625895   7.469812   3.167399   2.045118  18.421782   0.245497  10.118940  -0.050776   1.133281  -0.545542  -7.425516   1.132157   1.560983  -6.750760   5.629921  -0.361826 -17.556478   0.186493  -7.999413   0.055695   1.595092  -0.632632   6.671978  -0.597950  -1.289740  -5.051430  10.119545   0.033034  -0.012986  -7.239422  -3.685692   0.770975  -1.153481  -0.003307   0.004412  -3.272735   0.332740   1.018505   6.990098  -0.015750   0.006679  -6.211626   2.638894   1.355133   1.075034  -0.003269   0.003085
 -2.374180   0.924430   3.973031  -0.964161   0.371154   1.725183   1.640496   0.403962  -1.297053   0.998376  -0.900067  -0.810486  -1.791966  -0.095269   0.249655   1.304227  -1.675227   8.643075   3.845669   2.670777  21.800803   0.273582  11.946887  -0.061148   1.248484  -0.576327  -6.354039   1.376927   1.833316  -7.682494   6.216117  -0.629290 -20.727740   0.195176  -9.179449   0.054742   1.764560  -0.881033   5.546571  -0.446984  -1.605744  -6.100712  10.302901   0.027512  -0.011408  -7.906782  -4.360270   0.685769  -1.050725  -0.001870   0.002508  -3.974057   0.503786   1.375184   7.987925  -0.017689   0.006453  -6.777654   3.049990   1.436605   1.130035  -0.002929   0.002693
 -2.373999   0.920930   3.972558  -0.915207   0.041476   1.987631   1.792612   0.579031  -1.535293   1.017003  -0.878424  -0.949978  -2.095843  -0.181770   0.229695   1.560326  -1.645458   9.553192   4.425370   3.346195  24.827984   0.283647  13.690400  -0.067092   1.402250  -0.395437  -5.335426   1.606441   2.086358  -8.351930   6.747485  -0.898112 -23.558734   0.193546 -10.284425   0.053022   1.920748  -1.151623   4.496889  -0.429096  -1.902625  -7.103259  10.262524   0.021800  -0.008841  -8.543079  -4.991875   0.596406  -0.965459  -0.000905   0.001072  -4.614418   0.666760   1.708509   8.940510  -0.018895   0.004734  -7.302076   3.434141   1.516875   1.205134  -0.002752   0.002319
 -2.373857   0.916371   3.972016  -0.860552  -0.361814   2.238362   1.958450   0.758981  -1.769337   1.038004  -0.832710  -1.089169  -2.379011  -0.263411   0.208149   1.772548  -1.577357  10.273648   4.917885   4.028892  27.557217   0.281344  15.333511  -0.069374   1.563423  -0.122969  -4.530886   1.817377   2.313610  -8.845188   7.227440  -1.168404 -26.104641   0.185678 -11.316952   0.050774   2.068730  -1.416906   3.666960  -0.505018  -2.177863  -8.042500  10.157413   0.016943  -0.006308  -9.142464  -5.580664   0.505616  -0.893254  -0.000267   0.000058  -5.173041   0.810211   2.025475   9.844643  -0.019474   0.002692  -7.791524   3.790779   1.595070   1.277401  -0.002576   0.001939
